<?xml version="1.0" encoding="UTF-8"?>
<svg id="a" data-name="Livello_1" xmlns="http://www.w3.org/2000/svg" viewBox="0 0 213.91 32">
  <path d="M53.34,24.94h-2.27l6.57-17.89h2.24l6.57,17.89h-2.27l-5.35-15.06h-.14l-5.35,15.06ZM54.18,17.96h9.15v1.92h-9.15v-1.92Z" style="fill: #212833;"/>
  <path d="M76.11,24.94V7.06h2.17v8.87h.21l8.04-8.87h2.83l-7.51,8.07,7.51,9.82h-2.62l-6.22-8.32-2.24,2.52v5.8h-2.17Z" style="fill: #212833;"/>
  <path d="M101.21,7.06v17.89h-2.17V7.06h2.17Z" style="fill: #212833;"/>
  <path d="M112.44,24.94V7.06h10.73v1.92h-8.56v6.04h7.76v1.92h-7.76v8h-2.17Z" style="fill: #212833;"/>
  <path d="M133.77,24.94V7.06h2.17v15.97h8.32v1.92h-10.48Z" style="fill: #212833;"/>
  <path d="M168.89,16c0,1.89-.34,3.52-1.02,4.89-.68,1.37-1.62,2.43-2.8,3.18-1.19.75-2.54,1.12-4.07,1.12s-2.88-.37-4.07-1.12c-1.19-.75-2.12-1.81-2.8-3.18-.68-1.37-1.02-3-1.02-4.89s.34-3.52,1.02-4.89c.68-1.37,1.62-2.43,2.8-3.18,1.19-.75,2.54-1.12,4.07-1.12s2.88.37,4.07,1.12c1.19.75,2.12,1.81,2.8,3.18.68,1.37,1.02,3,1.02,4.89ZM166.79,16c0-1.55-.26-2.86-.78-3.92-.51-1.07-1.21-1.87-2.09-2.42-.87-.55-1.85-.82-2.93-.82s-2.06.27-2.94.82c-.87.55-1.57,1.35-2.09,2.42-.51,1.07-.77,2.37-.77,3.92s.26,2.86.77,3.92c.52,1.07,1.21,1.87,2.09,2.42.88.55,1.86.82,2.94.82s2.06-.27,2.93-.82c.88-.55,1.57-1.35,2.09-2.42.52-1.07.78-2.37.78-3.92Z" style="fill: #212833;"/>
  <path d="M182.67,24.94l-4.89-17.89h2.2l3.74,14.57h.18l3.81-14.57h2.44l3.81,14.57h.17l3.74-14.57h2.2l-4.89,17.89h-2.24l-3.95-14.26h-.14l-3.95,14.26h-2.24Z" style="fill: #212833;"/>
  <path d="M210.99,24.59c1.28,0,2.32-1.04,2.32-2.32s-1.04-2.32-2.32-2.32-2.32,1.04-2.32,2.32,1.04,2.32,2.32,2.32ZM213.91,22.27c0,1.61-1.31,2.92-2.92,2.92s-2.92-1.31-2.92-2.92,1.31-2.92,2.92-2.92,2.92,1.31,2.92,2.92Z" style="fill: #212833; fill-rule: evenodd;"/>
  <path d="M210.76,22.13c.14,0,.25-.02.31-.07.06-.05.09-.13.09-.24s-.03-.19-.09-.23c-.06-.05-.16-.07-.31-.07h-.29v.62h.29ZM210.47,22.56v.91h-.68v-2.4h1.05c.35,0,.61.05.77.16.16.11.25.27.25.5,0,.16-.04.29-.13.39-.08.1-.21.18-.38.22.09.02.18.06.25.13.07.07.15.17.23.31l.37.68h-.73l-.32-.6c-.07-.12-.13-.2-.2-.25-.07-.04-.15-.07-.27-.07h-.19Z" style="fill: #212833;"/>
  <path d="M12.5,0h-.17c-1.19,0-2.25.75-2.66,1.87L.17,28.22c-.66,1.84.7,3.78,2.66,3.78h10.46c1.2,0,2.27-.76,2.66-1.89l1.58-4.51,1.58,4.51c.4,1.13,1.47,1.89,2.66,1.89h10.46c1.96,0,3.32-1.94,2.66-3.78L25.39,1.87C24.98.75,23.92,0,22.73,0h-10.2s-.02,0-.03,0ZM16.2,21.81l-5.45-15.53L2.53,29.07c-.07.2.08.42.3.42h10.46c.13,0,.25-.08.3-.21l2.62-7.47ZM12.53,2.51c-.22,0-.37.21-.3.42l9.25,26.35c.04.13.16.21.3.21h10.46c.22,0,.37-.22.3-.42L23.03,2.72c-.04-.12-.16-.21-.3-.21h-10.2Z" style="fill: #9000ff; fill-rule: evenodd;"/>
  <path d="M9.87,3.76C9.22,1.92,10.58,0,12.53,0h10.2C23.92,0,24.98.75,25.39,1.87l9.51,26.35c.66,1.84-.7,3.78-2.66,3.78h-10.46c-1.2,0-2.27-.76-2.66-1.89L9.87,3.76ZM12.53,2.51c-.22,0-.37.21-.3.42l9.25,26.35c.04.13.16.21.3.21h10.46c.22,0,.37-.22.3-.42L23.03,2.72c-.04-.12-.16-.21-.3-.21h-10.2Z" style="fill: #9000ff; fill-rule: evenodd;"/>
</svg>